<?xml version="1.0" encoding="UTF-8"?>
<!DOCTYPE svg PUBLIC "-//W3C//DTD SVG 1.1//EN" "http://www.w3.org/Graphics/SVG/1.1/DTD/svg11.dtd">
<svg xmlns="http://www.w3.org/2000/svg" version="1.1" width="500px" height="500px" style="shape-rendering:geometricPrecision; text-rendering:geometricPrecision; image-rendering:optimizeQuality; fill-rule:evenodd; clip-rule:evenodd" xmlns:xlink="http://www.w3.org/1999/xlink">
<g><path style="opacity:0.729" fill="#9e9e9d" d="M 234.5,27.5 C 233.761,27.369 233.094,27.5357 232.5,28C 233.823,28.8159 234.489,29.9826 234.5,31.5C 232.159,29.3437 230.159,26.8437 228.5,24C 231.196,23.8513 233.196,25.018 234.5,27.5 Z"/></g>
<g><path style="opacity:1" fill="#0b0b0b" d="M 234.5,27.5 C 235.492,27.3284 236.158,27.6618 236.5,28.5C 237.035,30.4456 238.368,31.4456 240.5,31.5C 242.777,32.4486 244.777,33.7819 246.5,35.5C 247.035,37.4456 248.368,38.4456 250.5,38.5C 251.035,40.4456 252.368,41.4456 254.5,41.5C 254.821,43.0481 255.821,43.7148 257.5,43.5C 260.455,45.1223 263.122,47.1223 265.5,49.5C 265.821,51.0481 266.821,51.7148 268.5,51.5C 269.492,51.3284 270.158,51.6618 270.5,52.5C 271.035,54.4456 272.368,55.4456 274.5,55.5C 276.537,56.8465 278.537,58.1798 280.5,59.5C 281.268,62.5616 283.268,64.2283 286.5,64.5C 286.821,66.0481 287.821,66.7148 289.5,66.5C 292.523,68.5333 295.523,70.5333 298.5,72.5C 298.5,73.8333 299.167,74.5 300.5,74.5C 300.973,75.9063 301.973,76.573 303.5,76.5C 309.5,80.8333 315.5,85.1667 321.5,89.5C 321.5,90.8333 322.167,91.5 323.5,91.5C 325.795,92.4746 327.795,93.8079 329.5,95.5C 330.035,97.4456 331.368,98.4456 333.5,98.5C 336.135,99.8109 338.469,101.478 340.5,103.5C 340.81,105.144 341.81,106.144 343.5,106.5C 344.492,106.328 345.158,106.662 345.5,107.5C 346.035,109.446 347.368,110.446 349.5,110.5C 349.973,111.906 350.973,112.573 352.5,112.5C 352.821,114.048 353.821,114.715 355.5,114.5C 355.973,115.906 356.973,116.573 358.5,116.5C 362.538,119.512 366.538,122.512 370.5,125.5C 371.035,127.446 372.368,128.446 374.5,128.5C 378.736,130.445 382.403,133.112 385.5,136.5C 385.973,137.906 386.973,138.573 388.5,138.5C 392.382,140.934 396.048,143.601 399.5,146.5C 400.035,148.446 401.368,149.446 403.5,149.5C 405.191,150.864 406.858,152.197 408.5,153.5C 408.821,155.048 409.821,155.715 411.5,155.5C 416.45,158.453 421.117,161.786 425.5,165.5C 425.833,166.5 426.5,167.167 427.5,167.5C 427.973,168.906 428.973,169.573 430.5,169.5C 431.035,171.446 432.368,172.446 434.5,172.5C 434.973,173.906 435.973,174.573 437.5,174.5C 437.821,176.048 438.821,176.715 440.5,176.5C 441.492,176.328 442.158,176.662 442.5,177.5C 442.5,178.5 442.5,179.5 442.5,180.5C 423.329,191.92 403.995,203.087 384.5,214C 380.016,215.743 375.683,217.743 371.5,220C 369.097,220.63 367.263,219.797 366,217.5C 364.401,214.848 362.901,212.182 361.5,209.5C 361.573,207.973 360.906,206.973 359.5,206.5C 358.599,205.71 357.932,204.71 357.5,203.5C 357.446,201.368 356.446,200.035 354.5,199.5C 352.6,197.381 350.934,195.047 349.5,192.5C 349.446,190.368 348.446,189.035 346.5,188.5C 341.833,181.5 337.167,174.5 332.5,167.5C 332.715,165.821 332.048,164.821 330.5,164.5C 325.395,159.061 321.062,153.061 317.5,146.5C 317.573,144.973 316.906,143.973 315.5,143.5C 315.446,141.368 314.446,140.035 312.5,139.5C 311.662,139.158 311.328,138.492 311.5,137.5C 311.167,135.167 309.833,133.833 307.5,133.5C 304.931,130.039 302.597,126.372 300.5,122.5C 300.446,120.368 299.446,119.035 297.5,118.5C 296.662,118.158 296.328,117.492 296.5,116.5C 296.5,114.5 295.5,113.5 293.5,113.5C 292.662,113.158 292.328,112.492 292.5,111.5C 292.446,109.368 291.446,108.035 289.5,107.5C 287.453,105.45 285.786,103.117 284.5,100.5C 284.446,98.368 283.446,97.0347 281.5,96.5C 276.775,91.3972 272.775,85.7305 269.5,79.5C 269.5,78.1667 268.833,77.5 267.5,77.5C 258.267,65.3819 249.267,53.0486 240.5,40.5C 240.573,38.9731 239.906,37.9731 238.5,37.5C 237.662,37.1583 237.328,36.4916 237.5,35.5C 237.446,33.368 236.446,32.0347 234.5,31.5C 234.489,29.9826 233.823,28.8159 232.5,28C 233.094,27.5357 233.761,27.369 234.5,27.5 Z"/></g>
<g><path style="opacity:0.863" fill="#908f8f" d="M 236.5,28.5 C 238.23,29.0256 239.564,30.0256 240.5,31.5C 238.368,31.4456 237.035,30.4456 236.5,28.5 Z"/></g>
<g><path style="opacity:0.961" fill="#737474" d="M 234.5,31.5 C 236.446,32.0347 237.446,33.368 237.5,35.5C 236.026,34.5637 235.026,33.2303 234.5,31.5 Z"/></g>
<g><path style="opacity:0.82" fill="#949594" d="M 246.5,35.5 C 248.23,36.0256 249.564,37.0256 250.5,38.5C 248.368,38.4456 247.035,37.4456 246.5,35.5 Z"/></g>
<g><path style="opacity:0.02" fill="#cecfcf" d="M 238.5,37.5 C 239.906,37.9731 240.573,38.9731 240.5,40.5C 239.094,40.0269 238.427,39.0269 238.5,37.5 Z"/></g>
<g><path style="opacity:0.965" fill="#707070" d="M 250.5,38.5 C 252.23,39.0256 253.564,40.0256 254.5,41.5C 252.368,41.4456 251.035,40.4456 250.5,38.5 Z"/></g>
<g><path style="opacity:0.941" fill="#6f6d6d" d="M 254.5,41.5 C 255.71,41.9321 256.71,42.5987 257.5,43.5C 255.821,43.7148 254.821,43.0481 254.5,41.5 Z"/></g>
<g><path style="opacity:0.961" fill="#747474" d="M 265.5,49.5 C 266.71,49.9321 267.71,50.5987 268.5,51.5C 266.821,51.7148 265.821,51.0481 265.5,49.5 Z"/></g>
<g><path style="opacity:0.859" fill="#8c8c8c" d="M 270.5,52.5 C 272.23,53.0256 273.564,54.0256 274.5,55.5C 272.368,55.4456 271.035,54.4456 270.5,52.5 Z"/></g>
<g><path style="opacity:0.737" fill="#a0a0a0" d="M 280.5,59.5 C 282.54,61.177 284.54,62.8437 286.5,64.5C 283.268,64.2283 281.268,62.5616 280.5,59.5 Z"/></g>
<g><path style="opacity:0.957" fill="#717071" d="M 286.5,64.5 C 287.71,64.9321 288.71,65.5987 289.5,66.5C 287.821,66.7148 286.821,66.0481 286.5,64.5 Z"/></g>
<g><path style="opacity:0.655" fill="#9c9c9c" d="M 298.5,72.5 C 299.5,72.8333 300.167,73.5 300.5,74.5C 299.167,74.5 298.5,73.8333 298.5,72.5 Z"/></g>
<g><path style="opacity:0.027" fill="#c4c5c5" d="M 300.5,74.5 C 302.027,74.427 303.027,75.0937 303.5,76.5C 301.973,76.573 300.973,75.9063 300.5,74.5 Z"/></g>
<g><path style="opacity:0.643" fill="#9c9b9c" d="M 267.5,77.5 C 268.833,77.5 269.5,78.1667 269.5,79.5C 268.5,79.1667 267.833,78.5 267.5,77.5 Z"/></g>
<g><path style="opacity:0.322" fill="#bebebd" d="M 247.5,90.5 C 249.304,89.838 251.304,89.5046 253.5,89.5C 255.952,89.5391 257.952,90.2057 259.5,91.5C 255.6,90.5701 251.6,90.2367 247.5,90.5 Z"/></g>
<g><path style="opacity:1" fill="#0b0b0b" d="M 247.5,90.5 C 251.6,90.2367 255.6,90.5701 259.5,91.5C 260.674,92.5137 261.34,93.847 261.5,95.5C 261.427,97.0269 262.094,98.0269 263.5,98.5C 264.674,99.5137 265.34,100.847 265.5,102.5C 265.427,104.027 266.094,105.027 267.5,105.5C 269.083,107.663 270.416,109.996 271.5,112.5C 271.427,114.027 272.094,115.027 273.5,115.5C 275.008,117.181 276.008,119.181 276.5,121.5C 276.427,123.027 277.094,124.027 278.5,124.5C 278.427,126.027 279.094,127.027 280.5,127.5C 282.008,129.181 283.008,131.181 283.5,133.5C 283.427,135.027 284.094,136.027 285.5,136.5C 286.338,136.842 286.672,137.508 286.5,138.5C 286.427,140.027 287.094,141.027 288.5,141.5C 289.338,141.842 289.672,142.508 289.5,143.5C 289.427,145.027 290.094,146.027 291.5,146.5C 292.674,147.514 293.34,148.847 293.5,150.5C 293.427,152.027 294.094,153.027 295.5,153.5C 295.427,155.027 296.094,156.027 297.5,156.5C 298.338,156.842 298.672,157.508 298.5,158.5C 298.427,160.027 299.094,161.027 300.5,161.5C 300.427,163.027 301.094,164.027 302.5,164.5C 303.441,166.05 304.107,167.716 304.5,169.5C 304.738,171.404 305.738,172.738 307.5,173.5C 308.338,173.842 308.672,174.508 308.5,175.5C 308.427,177.027 309.094,178.027 310.5,178.5C 310.427,180.027 311.094,181.027 312.5,181.5C 313.674,182.514 314.34,183.847 314.5,185.5C 314.427,187.027 315.094,188.027 316.5,188.5C 316.427,190.027 317.094,191.027 318.5,191.5C 319.338,191.842 319.672,192.508 319.5,193.5C 319.427,195.027 320.094,196.027 321.5,196.5C 322.674,197.514 323.34,198.847 323.5,200.5C 323.427,202.027 324.094,203.027 325.5,203.5C 325.427,205.027 326.094,206.027 327.5,206.5C 328.338,206.842 328.672,207.508 328.5,208.5C 328.427,210.027 329.094,211.027 330.5,211.5C 330.427,213.027 331.094,214.027 332.5,214.5C 333.338,214.842 333.672,215.508 333.5,216.5C 333.427,218.027 334.094,219.027 335.5,219.5C 336.338,219.842 336.672,220.508 336.5,221.5C 336.427,223.027 337.094,224.027 338.5,224.5C 339.338,224.842 339.672,225.508 339.5,226.5C 339.738,228.404 340.738,229.738 342.5,230.5C 344.008,232.181 345.008,234.181 345.5,236.5C 347.038,239.048 348.704,239.048 350.5,236.5C 356.461,233.519 362.461,230.519 368.5,227.5C 370.027,227.573 371.027,226.906 371.5,225.5C 375.182,222.992 379.182,220.992 383.5,219.5C 385.967,219.245 387.967,218.245 389.5,216.5C 393.182,213.992 397.182,211.992 401.5,210.5C 403.153,210.34 404.486,209.674 405.5,208.5C 407.027,208.573 408.027,207.906 408.5,206.5C 409.78,205.069 411.447,204.402 413.5,204.5C 415.027,204.573 416.027,203.906 416.5,202.5C 418.849,200.659 421.515,199.326 424.5,198.5C 426.796,198.804 427.129,199.804 425.5,201.5C 392.67,221.75 359.67,241.75 326.5,261.5C 324.62,261.229 323.287,261.896 322.5,263.5C 319.165,266.839 315.165,269.172 310.5,270.5C 309.391,270.443 308.391,270.11 307.5,269.5C 295.403,224.559 282.737,179.892 269.5,135.5C 269.737,134.209 269.404,133.209 268.5,132.5C 267.602,127.466 265.935,122.799 263.5,118.5C 263.5,120.167 263.5,121.833 263.5,123.5C 263.42,126.781 264.087,129.781 265.5,132.5C 265.42,135.781 266.087,138.781 267.5,141.5C 268.99,145.942 269.99,150.609 270.5,155.5C 270.294,158.495 270.96,161.162 272.5,163.5C 273.593,167.394 274.26,171.394 274.5,175.5C 274.41,178.152 275.076,180.485 276.5,182.5C 276.5,183.5 276.5,184.5 276.5,185.5C 276.294,188.495 276.96,191.162 278.5,193.5C 278.5,194.167 278.5,194.833 278.5,195.5C 278.631,196.239 278.464,196.906 278,197.5C 274.606,196.544 271.106,196.211 267.5,196.5C 266.833,196.5 266.167,196.5 265.5,196.5C 263.095,195.232 260.428,194.565 257.5,194.5C 235.49,191.129 213.49,187.963 191.5,185C 166.307,199.763 140.974,214.263 115.5,228.5C 113.973,228.427 112.973,229.094 112.5,230.5C 104.804,235.682 96.8038,240.348 88.5,244.5C 86.9731,244.427 85.9731,245.094 85.5,246.5C 60.8183,262.178 35.485,276.845 9.5,290.5C 7.21879,290.923 5.55213,290.256 4.5,288.5C 6.58689,287.415 7.92022,285.749 8.5,283.5C 9.90632,283.027 10.573,282.027 10.5,280.5C 12.2733,277.94 14.2733,275.607 16.5,273.5C 17.9063,273.027 18.573,272.027 18.5,270.5C 18.8333,269.5 19.5,268.833 20.5,268.5C 22.2624,267.738 23.2624,266.404 23.5,264.5C 25.2624,263.738 26.2624,262.404 26.5,260.5C 28.1964,258.475 29.863,256.475 31.5,254.5C 33.2624,253.738 34.2624,252.404 34.5,250.5C 36.914,249.089 38.5806,247.089 39.5,244.5C 39.7376,242.596 40.7376,241.262 42.5,240.5C 43.5,240.167 44.1667,239.5 44.5,238.5C 44.5,237.833 44.8333,237.5 45.5,237.5C 47.2624,236.738 48.2624,235.404 48.5,233.5C 50.2624,232.738 51.2624,231.404 51.5,229.5C 53.2624,228.738 54.2624,227.404 54.5,225.5C 55.9063,225.027 56.573,224.027 56.5,222.5C 57.5,222.167 58.1667,221.5 58.5,220.5C 58.3284,219.508 58.6618,218.842 59.5,218.5C 61.8333,218.167 63.1667,216.833 63.5,214.5C 64.4486,212.223 65.7819,210.223 67.5,208.5C 69.8333,208.167 71.1667,206.833 71.5,204.5C 71.5,204.167 71.5,203.833 71.5,203.5C 73.2624,202.738 74.2624,201.404 74.5,199.5C 76.914,198.089 78.5806,196.089 79.5,193.5C 79.8333,192.5 80.5,191.833 81.5,191.5C 82.9063,191.027 83.573,190.027 83.5,188.5C 84.9063,188.027 85.573,187.027 85.5,185.5C 85.8333,184.5 86.5,183.833 87.5,183.5C 89.5869,182.415 90.9202,180.749 91.5,178.5C 91.7376,176.596 92.7376,175.262 94.5,174.5C 96.2624,173.738 97.2624,172.404 97.5,170.5C 99.2624,169.738 100.262,168.404 100.5,166.5C 102.587,165.415 103.92,163.749 104.5,161.5C 104.328,160.508 104.662,159.842 105.5,159.5C 107.833,159.5 110.167,159.5 112.5,159.5C 114.903,159.448 117.236,159.781 119.5,160.5C 121.438,162.163 123.772,162.829 126.5,162.5C 131.003,162.867 135.336,163.867 139.5,165.5C 141.914,164.089 143.581,162.089 144.5,159.5C 145.5,157.833 146.833,156.5 148.5,155.5C 150.404,155.262 151.738,154.262 152.5,152.5C 152.5,151.833 152.833,151.5 153.5,151.5C 155.587,150.415 156.92,148.749 157.5,146.5C 159.196,146.315 160.529,145.481 161.5,144C 160.906,143.536 160.239,143.369 159.5,143.5C 157.716,143.107 156.05,142.441 154.5,141.5C 152.824,139.166 150.491,138.166 147.5,138.5C 141.817,136.495 136.151,134.495 130.5,132.5C 129.365,130.787 127.698,130.12 125.5,130.5C 122.082,129.361 118.749,128.028 115.5,126.5C 114.365,124.787 112.698,124.12 110.5,124.5C 106.542,123.929 102.876,122.595 99.5,120.5C 98.3646,118.787 96.698,118.12 94.5,118.5C 92.7162,118.107 91.0495,117.441 89.5,116.5C 88.3646,114.787 86.698,114.12 84.5,114.5C 82.7085,114.634 81.0418,114.301 79.5,113.5C 77.8984,111.926 75.8984,111.259 73.5,111.5C 74.1667,110.833 74.8333,110.167 75.5,109.5C 78.9097,109.218 82.243,108.551 85.5,107.5C 89.6518,107.654 93.9851,107.654 98.5,107.5C 100.735,107.795 102.735,107.461 104.5,106.5C 114.724,104.846 125.057,103.846 135.5,103.5C 138.059,103.802 140.393,103.468 142.5,102.5C 146.942,101.418 151.275,101.085 155.5,101.5C 159.733,101.461 163.733,100.795 167.5,99.5C 186.08,96.8523 204.746,94.8523 223.5,93.5C 229.051,93.473 234.384,92.8063 239.5,91.5C 242.127,90.9084 244.794,90.5751 247.5,90.5 Z M 263.5,118.5 C 265.935,122.799 267.602,127.466 268.5,132.5C 267.732,133.263 267.232,134.263 267,135.5C 266.768,134.263 266.268,133.263 265.5,132.5C 265.58,129.219 264.913,126.219 263.5,123.5C 263.5,121.833 263.5,120.167 263.5,118.5 Z"/></g>
<g><path style="opacity:0.569" fill="#afaeae" d="M 321.5,89.5 C 322.5,89.8333 323.167,90.5 323.5,91.5C 322.167,91.5 321.5,90.8333 321.5,89.5 Z"/></g>
<g><path style="opacity:0.443" fill="#b2b2b2" d="M 239.5,91.5 C 234.384,92.8063 229.051,93.473 223.5,93.5C 228.583,91.9216 233.916,91.2549 239.5,91.5 Z"/></g>
<g><path style="opacity:0.953" fill="#7d7d7d" d="M 281.5,96.5 C 283.446,97.0347 284.446,98.368 284.5,100.5C 283.026,99.5637 282.026,98.2303 281.5,96.5 Z"/></g>
<g><path style="opacity:0.925" fill="#838384" d="M 329.5,95.5 C 331.23,96.0256 332.564,97.0256 333.5,98.5C 331.368,98.4456 330.035,97.4456 329.5,95.5 Z"/></g>
<g><path style="opacity:0.173" fill="#bfbebe" d="M 261.5,95.5 C 262.906,95.9731 263.573,96.9731 263.5,98.5C 262.094,98.0269 261.427,97.0269 261.5,95.5 Z"/></g>
<g><path style="opacity:0.165" fill="#afaeae" d="M 167.5,99.5 C 163.733,100.795 159.733,101.461 155.5,101.5C 159.21,99.8643 163.21,99.1977 167.5,99.5 Z"/></g>
<g><path style="opacity:0.324" fill="#a6a4a5" d="M 142.5,102.5 C 140.393,103.468 138.059,103.802 135.5,103.5C 137.556,102.784 139.723,102.117 142,101.5C 142.399,101.728 142.565,102.062 142.5,102.5 Z"/></g>
<g><path style="opacity:0.318" fill="#b0afaf" d="M 265.5,102.5 C 266.906,102.973 267.573,103.973 267.5,105.5C 266.094,105.027 265.427,104.027 265.5,102.5 Z"/></g>
<g><path style="opacity:0.498" fill="#8b8a8a" d="M 340.5,103.5 C 342.19,103.856 343.19,104.856 343.5,106.5C 341.81,106.144 340.81,105.144 340.5,103.5 Z"/></g>
<g><path style="opacity:0.302" fill="#adacac" d="M 104.5,106.5 C 102.735,107.461 100.735,107.795 98.5,107.5C 100.218,106.776 102.052,106.109 104,105.5C 104.399,105.728 104.565,106.062 104.5,106.5 Z"/></g>
<g><path style="opacity:0.004" fill="#fcfcfc" d="M 74.5,107.5 C 75.8333,108.167 75.8333,108.167 74.5,107.5 Z"/></g>
<g><path style="opacity:0.965" fill="#717070" d="M 289.5,107.5 C 291.446,108.035 292.446,109.368 292.5,111.5C 291.026,110.564 290.026,109.23 289.5,107.5 Z"/></g>
<g><path style="opacity:0.922" fill="#838282" d="M 345.5,107.5 C 347.23,108.026 348.564,109.026 349.5,110.5C 347.368,110.446 346.035,109.446 345.5,107.5 Z"/></g>
<g><path style="opacity:0.247" fill="#c5c5c5" d="M 75.5,109.5 C 74.8333,110.167 74.1667,110.833 73.5,111.5C 72.6236,111.631 71.9569,111.298 71.5,110.5C 72.6888,109.571 74.0222,109.238 75.5,109.5 Z"/></g>
<g><path style="opacity:0.024" fill="#cacbcb" d="M 349.5,110.5 C 351.027,110.427 352.027,111.094 352.5,112.5C 350.973,112.573 349.973,111.906 349.5,110.5 Z"/></g>
<g><path style="opacity:0.741" fill="#9d9d9d" d="M 73.5,111.5 C 75.8984,111.259 77.8984,111.926 79.5,113.5C 77.2143,113.405 75.2143,112.738 73.5,111.5 Z"/></g>
<g><path style="opacity:0.235" fill="#b2b1b2" d="M 263.5,115.5 C 262.662,115.842 262.328,116.508 262.5,117.5C 260.416,113.142 259.583,108.476 260,103.5C 260.884,107.596 262.05,111.596 263.5,115.5 Z"/></g>
<g><path style="opacity:0.698" fill="#959596" d="M 293.5,113.5 C 295.5,113.5 296.5,114.5 296.5,116.5C 295.167,115.833 294.167,114.833 293.5,113.5 Z"/></g>
<g><path style="opacity:0.953" fill="#717171" d="M 352.5,112.5 C 353.71,112.932 354.71,113.599 355.5,114.5C 353.821,114.715 352.821,114.048 352.5,112.5 Z"/></g>
<g><path style="opacity:0.894" fill="#767575" d="M 84.5,114.5 C 86.698,114.12 88.3646,114.787 89.5,116.5C 87.4471,116.598 85.7804,115.931 84.5,114.5 Z"/></g>
<g><path style="opacity:0.325" fill="#b6b5b5" d="M 271.5,112.5 C 272.906,112.973 273.573,113.973 273.5,115.5C 272.094,115.027 271.427,114.027 271.5,112.5 Z"/></g>
<g><path style="opacity:0.031" fill="#bdbdbc" d="M 355.5,114.5 C 357.027,114.427 358.027,115.094 358.5,116.5C 356.973,116.573 355.973,115.906 355.5,114.5 Z"/></g>
<g><path style="opacity:0.871" fill="#7e7d7e" d="M 94.5,118.5 C 96.698,118.12 98.3646,118.787 99.5,120.5C 97.597,120.204 95.9303,119.537 94.5,118.5 Z"/></g>
<g><path style="opacity:0.949" fill="#797979" d="M 297.5,118.5 C 299.446,119.035 300.446,120.368 300.5,122.5C 299.026,121.564 298.026,120.23 297.5,118.5 Z"/></g>
<g><path style="opacity:0.522" fill="#909090" d="M 276.5,121.5 C 277.906,121.973 278.573,122.973 278.5,124.5C 277.094,124.027 276.427,123.027 276.5,121.5 Z"/></g>
<g><path style="opacity:0.843" fill="#848383" d="M 110.5,124.5 C 112.698,124.12 114.365,124.787 115.5,126.5C 113.597,126.204 111.93,125.537 110.5,124.5 Z"/></g>
<g><path style="opacity:0.306" fill="#b0b1b1" d="M 278.5,124.5 C 279.906,124.973 280.573,125.973 280.5,127.5C 279.094,127.027 278.427,126.027 278.5,124.5 Z"/></g>
<g><path style="opacity:0.937" fill="#787878" d="M 370.5,125.5 C 372.23,126.026 373.564,127.026 374.5,128.5C 372.368,128.446 371.035,127.446 370.5,125.5 Z"/></g>
<g><path style="opacity:0.007" fill="#c6c6c6" d="M 263.5,123.5 C 264.913,126.219 265.58,129.219 265.5,132.5C 264.087,129.781 263.42,126.781 263.5,123.5 Z"/></g>
<g><path style="opacity:0.894" fill="#6f6f70" d="M 125.5,130.5 C 127.698,130.12 129.365,130.787 130.5,132.5C 128.597,132.204 126.93,131.537 125.5,130.5 Z"/></g>
<g><path style="opacity:0.612" fill="#ababab" d="M 307.5,133.5 C 309.833,133.833 311.167,135.167 311.5,137.5C 309.833,136.5 308.5,135.167 307.5,133.5 Z"/></g>
<g><path style="opacity:0.698" fill="#8c8c8c" d="M 283.5,133.5 C 284.906,133.973 285.573,134.973 285.5,136.5C 284.094,136.027 283.427,135.027 283.5,133.5 Z"/></g>
<g><path style="opacity:0.004" fill="#d4d4d5" d="M 265.5,132.5 C 266.268,133.263 266.768,134.263 267,135.5C 267.232,134.263 267.732,133.263 268.5,132.5C 268.263,133.791 268.596,134.791 269.5,135.5C 269.587,138.598 269.087,138.932 268,136.5C 267.506,138.134 267.34,139.801 267.5,141.5C 266.087,138.781 265.42,135.781 265.5,132.5 Z"/></g>
<g><path style="opacity:0.024" fill="#cccdcc" d="M 385.5,136.5 C 387.027,136.427 388.027,137.094 388.5,138.5C 386.973,138.573 385.973,137.906 385.5,136.5 Z"/></g>
<g><path style="opacity:0.949" fill="#6f6e6f" d="M 147.5,138.5 C 150.491,138.166 152.824,139.166 154.5,141.5C 151.843,141.065 149.509,140.065 147.5,138.5 Z"/></g>
<g><path style="opacity:0.227" fill="#c1c1c1" d="M 286.5,138.5 C 287.906,138.973 288.573,139.973 288.5,141.5C 287.094,141.027 286.427,140.027 286.5,138.5 Z"/></g>
<g><path style="opacity:0.678" fill="#7f7e7e" d="M 312.5,139.5 C 314.446,140.035 315.446,141.368 315.5,143.5C 314.026,142.564 313.026,141.23 312.5,139.5 Z"/></g>
<g><path style="opacity:0.682" fill="#818182" d="M 159.5,143.5 C 160.239,143.369 160.906,143.536 161.5,144C 160.529,145.481 159.196,146.315 157.5,146.5C 158.167,145.5 158.833,144.5 159.5,143.5 Z"/></g>
<g><path style="opacity:0.004" fill="#c7c7c7" d="M 315.5,143.5 C 316.906,143.973 317.573,144.973 317.5,146.5C 316.094,146.027 315.427,145.027 315.5,143.5 Z"/></g>
<g><path style="opacity:0.467" fill="#979696" d="M 289.5,143.5 C 290.906,143.973 291.573,144.973 291.5,146.5C 290.094,146.027 289.427,145.027 289.5,143.5 Z"/></g>
<g><path style="opacity:0.988" fill="#6c6c6c" d="M 399.5,146.5 C 401.23,147.026 402.564,148.026 403.5,149.5C 401.368,149.446 400.035,148.446 399.5,146.5 Z"/></g>
<g><path style="opacity:0.427" fill="#9c9b9c" d="M 157.5,146.5 C 156.92,148.749 155.587,150.415 153.5,151.5C 154.08,149.251 155.413,147.585 157.5,146.5 Z"/></g>
<g><path style="opacity:0.553" fill="#868585" d="M 293.5,150.5 C 294.906,150.973 295.573,151.973 295.5,153.5C 294.094,153.027 293.427,152.027 293.5,150.5 Z"/></g>
<g><path style="opacity:0.757" fill="#7e7e7e" d="M 152.5,152.5 C 151.738,154.262 150.404,155.262 148.5,155.5C 149.262,153.738 150.596,152.738 152.5,152.5 Z"/></g>
<g><path style="opacity:0.945" fill="#797979" d="M 408.5,153.5 C 409.71,153.932 410.71,154.599 411.5,155.5C 409.821,155.715 408.821,155.048 408.5,153.5 Z"/></g>
<g><path style="opacity:0.298" fill="#b4b3b3" d="M 295.5,153.5 C 296.906,153.973 297.573,154.973 297.5,156.5C 296.094,156.027 295.427,155.027 295.5,153.5 Z"/></g>
<g><path style="opacity:0.671" fill="#757575" d="M 112.5,159.5 C 110.167,159.5 107.833,159.5 105.5,159.5C 105.783,158.711 106.283,158.044 107,157.5C 108.948,158.109 110.782,158.776 112.5,159.5 Z"/></g>
<g><path style="opacity:0.294" fill="#acacab" d="M 298.5,158.5 C 299.906,158.973 300.573,159.973 300.5,161.5C 299.094,161.027 298.427,160.027 298.5,158.5 Z"/></g>
<g><path style="opacity:0.765" fill="#838282" d="M 119.5,160.5 C 122.067,160.721 124.401,161.388 126.5,162.5C 123.772,162.829 121.438,162.163 119.5,160.5 Z"/></g>
<g><path style="opacity:0.749" fill="#838282" d="M 144.5,159.5 C 143.581,162.089 141.914,164.089 139.5,165.5C 140.419,162.911 142.086,160.911 144.5,159.5 Z"/></g>
<g><path style="opacity:0.427" fill="#9d9e9d" d="M 270.5,155.5 C 271.768,157.905 272.435,160.572 272.5,163.5C 270.96,161.162 270.294,158.495 270.5,155.5 Z"/></g>
<g><path style="opacity:0.471" fill="#a4a4a3" d="M 104.5,161.5 C 103.92,163.749 102.587,165.415 100.5,166.5C 101.08,164.251 102.413,162.585 104.5,161.5 Z"/></g>
<g><path style="opacity:0.29" fill="#acacab" d="M 300.5,161.5 C 301.906,161.973 302.573,162.973 302.5,164.5C 301.094,164.027 300.427,163.027 300.5,161.5 Z"/></g>
<g><path style="opacity:0.949" fill="#727171" d="M 330.5,164.5 C 332.048,164.821 332.715,165.821 332.5,167.5C 331.599,166.71 330.932,165.71 330.5,164.5 Z"/></g>
<g><path style="opacity:0.016" fill="#cdcdcd" d="M 425.5,165.5 C 426.833,165.5 427.5,166.167 427.5,167.5C 426.5,167.167 425.833,166.5 425.5,165.5 Z"/></g>
<g><path style="opacity:0.024" fill="#cacac9" d="M 427.5,167.5 C 429.027,167.427 430.027,168.094 430.5,169.5C 428.973,169.573 427.973,168.906 427.5,167.5 Z"/></g>
<g><path style="opacity:0.643" fill="#8d8c8b" d="M 100.5,166.5 C 100.262,168.404 99.2624,169.738 97.5,170.5C 97.7376,168.596 98.7376,167.262 100.5,166.5 Z"/></g>
<g><path style="opacity:0.941" fill="#737272" d="M 430.5,169.5 C 432.23,170.026 433.564,171.026 434.5,172.5C 432.368,172.446 431.035,171.446 430.5,169.5 Z"/></g>
<g><path style="opacity:0.549" fill="#979796" d="M 304.5,169.5 C 306.262,170.262 307.262,171.596 307.5,173.5C 305.738,172.738 304.738,171.404 304.5,169.5 Z"/></g>
<g><path style="opacity:0.702" fill="#7e7d7d" d="M 97.5,170.5 C 97.2624,172.404 96.2624,173.738 94.5,174.5C 94.7376,172.596 95.7376,171.262 97.5,170.5 Z"/></g>
<g><path style="opacity:0.004" fill="#cbcbcb" d="M 434.5,172.5 C 436.027,172.427 437.027,173.094 437.5,174.5C 435.973,174.573 434.973,173.906 434.5,172.5 Z"/></g>
<g><path style="opacity:0.949" fill="#797878" d="M 437.5,174.5 C 438.71,174.932 439.71,175.599 440.5,176.5C 438.821,176.715 437.821,176.048 437.5,174.5 Z"/></g>
<g><path style="opacity:0.267" fill="#c4c4c3" d="M 461.5,177.5 C 461.631,176.761 461.464,176.094 461,175.5C 460.329,176.252 459.496,176.586 458.5,176.5C 459.287,174.896 460.62,174.229 462.5,174.5C 462.737,175.791 462.404,176.791 461.5,177.5 Z"/></g>
<g><path style="opacity:0.573" fill="#828181" d="M 308.5,175.5 C 309.906,175.973 310.573,176.973 310.5,178.5C 309.094,178.027 308.427,177.027 308.5,175.5 Z"/></g>
<g><path style="opacity:1" fill="#0a0a0a" d="M 461.5,177.5 C 454.736,193.353 447.736,209.02 440.5,224.5C 438.896,225.287 438.229,226.62 438.5,228.5C 427.688,253.454 416.355,278.121 404.5,302.5C 403.094,302.973 402.427,303.973 402.5,305.5C 401.679,309.127 400.346,312.46 398.5,315.5C 396.896,316.287 396.229,317.62 396.5,319.5C 394.86,322.78 393.193,326.114 391.5,329.5C 397.921,333.365 403.921,337.698 409.5,342.5C 410.514,343.674 411.847,344.34 413.5,344.5C 415.434,345.11 417.101,346.11 418.5,347.5C 419.035,349.446 420.368,350.446 422.5,350.5C 424.882,351.351 426.882,352.684 428.5,354.5C 428.973,355.906 429.973,356.573 431.5,356.5C 432.5,357.167 433.5,357.833 434.5,358.5C 434.821,360.048 435.821,360.715 437.5,360.5C 441.173,362 444.506,364 447.5,366.5C 447.821,368.048 448.821,368.715 450.5,368.5C 450.821,370.048 451.821,370.715 453.5,370.5C 454.492,370.328 455.158,370.662 455.5,371.5C 455.167,372.167 454.833,372.833 454.5,373.5C 412.365,382.76 370.365,392.594 328.5,403C 320.244,404.981 311.91,406.481 303.5,407.5C 301.214,407.595 299.214,408.262 297.5,409.5C 278.538,413.99 259.538,418.324 240.5,422.5C 237.952,424.038 237.952,425.704 240.5,427.5C 241.828,431.818 243.161,436.151 244.5,440.5C 244.318,442.591 244.652,444.591 245.5,446.5C 245.043,447.298 244.376,447.631 243.5,447.5C 241.98,445.11 240.98,442.443 240.5,439.5C 240.672,438.508 240.338,437.842 239.5,437.5C 216.851,379.055 195.684,320.055 176,260.5C 177.167,273.842 178.667,287.175 180.5,300.5C 180.42,303.781 181.087,306.781 182.5,309.5C 183.907,313.683 184.574,318.016 184.5,322.5C 184.215,325.829 184.882,328.829 186.5,331.5C 187.875,343.543 189.542,355.543 191.5,367.5C 191.335,370.85 191.502,374.183 192,377.5C 192.383,378.056 192.883,378.389 193.5,378.5C 194.338,378.842 194.672,379.508 194.5,380.5C 194.427,382.027 195.094,383.027 196.5,383.5C 197.338,383.842 197.672,384.508 197.5,385.5C 197.427,387.027 198.094,388.027 199.5,388.5C 199.738,390.404 200.738,391.738 202.5,392.5C 202.427,394.027 203.094,395.027 204.5,395.5C 204.427,397.027 205.094,398.027 206.5,398.5C 207.338,398.842 207.672,399.508 207.5,400.5C 207.738,402.404 208.738,403.738 210.5,404.5C 210.738,406.404 211.738,407.738 213.5,408.5C 214.338,408.842 214.672,409.508 214.5,410.5C 214.427,412.027 215.094,413.027 216.5,413.5C 216.427,415.027 217.094,416.027 218.5,416.5C 218.5,416.833 218.5,417.167 218.5,417.5C 218.427,419.027 219.094,420.027 220.5,420.5C 220.427,422.027 221.094,423.027 222.5,423.5C 223.488,424.795 224.488,426.128 225.5,427.5C 225.427,429.027 226.094,430.027 227.5,430.5C 227.5,430.833 227.5,431.167 227.5,431.5C 227.427,433.027 228.094,434.027 229.5,434.5C 229.427,436.027 230.094,437.027 231.5,437.5C 232.338,437.842 232.672,438.508 232.5,439.5C 232.427,441.027 233.094,442.027 234.5,442.5C 235.674,443.514 236.34,444.847 236.5,446.5C 236.427,448.027 237.094,449.027 238.5,449.5C 239.338,449.842 239.672,450.508 239.5,451.5C 239.427,453.027 240.094,454.027 241.5,454.5C 243.025,456.216 244.025,458.216 244.5,460.5C 244.427,462.027 245.094,463.027 246.5,463.5C 247.674,464.514 248.34,465.847 248.5,467.5C 248.427,469.027 249.094,470.027 250.5,470.5C 251.674,471.514 252.34,472.847 252.5,474.5C 252.427,476.027 253.094,477.027 254.5,477.5C 254.5,478.167 254.5,478.833 254.5,479.5C 253.798,480.116 252.798,480.116 251.5,479.5C 250.5,479.167 249.833,478.5 249.5,477.5C 249.5,476.167 248.833,475.5 247.5,475.5C 247.5,475.167 247.5,474.833 247.5,474.5C 247.167,473.5 246.5,472.833 245.5,472.5C 242.5,470.167 239.833,467.5 237.5,464.5C 237.573,462.973 236.906,461.973 235.5,461.5C 231.124,458.126 227.458,454.126 224.5,449.5C 223.415,447.413 221.749,446.08 219.5,445.5C 218.833,444.5 218.167,443.5 217.5,442.5C 216.864,440.205 215.531,438.539 213.5,437.5C 211.167,435.833 209.167,433.833 207.5,431.5C 207.446,429.368 206.446,428.035 204.5,427.5C 204.027,426.094 203.027,425.427 201.5,425.5C 201.5,423.5 200.5,422.5 198.5,422.5C 198.217,421.711 197.717,421.044 197,420.5C 196.211,422.712 196.378,424.712 197.5,426.5C 198.5,438.501 199.5,450.501 200.5,462.5C 200.768,464.099 200.434,465.432 199.5,466.5C 197.246,462.993 195.246,459.327 193.5,455.5C 193.715,453.821 193.048,452.821 191.5,452.5C 191.741,449.966 190.741,448.3 188.5,447.5C 186.583,444.669 184.917,441.669 183.5,438.5C 183.715,436.821 183.048,435.821 181.5,435.5C 178.992,431.818 176.992,427.818 175.5,423.5C 175.446,421.368 174.446,420.035 172.5,419.5C 171.508,417.544 170.508,415.544 169.5,413.5C 169.715,411.821 169.048,410.821 167.5,410.5C 161.423,401.355 156.09,391.689 151.5,381.5C 151.715,379.821 151.048,378.821 149.5,378.5C 145.264,371.703 141.264,364.703 137.5,357.5C 137.715,355.821 137.048,354.821 135.5,354.5C 134.596,353.791 134.263,352.791 134.5,351.5C 134.715,349.821 134.048,348.821 132.5,348.5C 131.326,347.486 130.66,346.153 130.5,344.5C 130.715,342.821 130.048,341.821 128.5,341.5C 125.759,338.314 123.759,334.647 122.5,330.5C 122.715,328.821 122.048,327.821 120.5,327.5C 118.929,325.365 117.596,323.032 116.5,320.5C 116.715,318.821 116.048,317.821 114.5,317.5C 113.172,314.503 111.839,311.503 110.5,308.5C 110.715,306.821 110.048,305.821 108.5,305.5C 107.662,305.158 107.328,304.492 107.5,303.5C 107.446,301.368 106.446,300.035 104.5,299.5C 102.872,296.581 101.538,293.581 100.5,290.5C 76.5,290.5 52.5,290.5 28.5,290.5C 24.2984,290.817 20.2984,290.483 16.5,289.5C 18.698,289.88 20.3646,289.213 21.5,287.5C 24.716,287.655 27.3826,286.655 29.5,284.5C 32.8004,282.358 36.467,281.025 40.5,280.5C 42.698,280.88 44.3646,280.213 45.5,278.5C 48.8289,277.169 52.1623,275.836 55.5,274.5C 58.716,274.655 61.3826,273.655 63.5,271.5C 66.716,271.655 69.3826,270.655 71.5,268.5C 73.0269,268.573 74.0269,267.906 74.5,266.5C 80.7307,263.885 87.064,261.551 93.5,259.5C 96.716,259.655 99.3826,258.655 101.5,256.5C 106.531,253.655 111.864,251.322 117.5,249.5C 119.898,249.741 121.898,249.074 123.5,247.5C 124.209,246.596 125.209,246.263 126.5,246.5C 128.698,246.88 130.365,246.213 131.5,244.5C 132.209,243.596 133.209,243.263 134.5,243.5C 136.153,243.34 137.486,242.674 138.5,241.5C 139.78,240.069 141.447,239.402 143.5,239.5C 146.992,239.554 149.992,238.554 152.5,236.5C 157.767,233.372 163.434,231.039 169.5,229.5C 171.698,229.88 173.365,229.213 174.5,227.5C 176.89,225.98 179.557,224.98 182.5,224.5C 184.698,224.88 186.365,224.213 187.5,222.5C 188.93,221.463 190.597,220.796 192.5,220.5C 194.698,220.88 196.365,220.213 197.5,218.5C 199.5,218.5 201.5,218.5 203.5,218.5C 205.833,236.496 208.166,254.496 210.5,272.5C 210.194,275.385 210.527,278.052 211.5,280.5C 213.774,295.09 215.774,309.756 217.5,324.5C 217.5,326.833 217.5,329.167 217.5,331.5C 218.791,331.737 219.791,331.404 220.5,330.5C 222.181,328.992 224.181,327.992 226.5,327.5C 228.027,327.573 229.027,326.906 229.5,325.5C 229.842,324.662 230.508,324.328 231.5,324.5C 233.027,324.573 234.027,323.906 234.5,322.5C 234.842,321.662 235.508,321.328 236.5,321.5C 238.933,321.727 240.599,320.727 241.5,318.5C 243.027,318.573 244.027,317.906 244.5,316.5C 245.514,315.326 246.847,314.66 248.5,314.5C 250.027,314.573 251.027,313.906 251.5,312.5C 253.027,312.573 254.027,311.906 254.5,310.5C 256.027,310.573 257.027,309.906 257.5,308.5C 260.764,307.676 264.098,307.342 267.5,307.5C 289.538,308.347 311.538,309.68 333.5,311.5C 335.587,310.415 336.92,308.749 337.5,306.5C 340.243,304.761 342.243,302.427 343.5,299.5C 343.833,298.5 344.5,297.833 345.5,297.5C 347.262,296.738 348.262,295.404 348.5,293.5C 349.5,291.833 350.833,290.5 352.5,289.5C 354.262,288.738 355.262,287.404 355.5,285.5C 355.833,284.5 356.5,283.833 357.5,283.5C 358.833,282.833 359.833,281.833 360.5,280.5C 361.833,279.833 362.833,278.833 363.5,277.5C 363.328,276.508 363.662,275.842 364.5,275.5C 366.262,274.738 367.262,273.404 367.5,271.5C 368.5,269.833 369.833,268.5 371.5,267.5C 373.262,266.738 374.262,265.404 374.5,263.5C 374.833,262.5 375.5,261.833 376.5,261.5C 379.903,259.1 382.57,256.1 384.5,252.5C 386.262,251.738 387.262,250.404 387.5,248.5C 387.833,247.5 388.5,246.833 389.5,246.5C 391.914,245.089 393.581,243.089 394.5,240.5C 395.833,238.5 397.5,236.833 399.5,235.5C 400.906,235.027 401.573,234.027 401.5,232.5C 404.041,228.748 407.041,225.415 410.5,222.5C 414.566,219.437 417.899,215.771 420.5,211.5C 422.529,209.142 424.529,206.808 426.5,204.5C 429.048,201.936 431.715,199.436 434.5,197C 433.5,196.667 432.5,196.333 431.5,196C 432.381,195.292 433.047,194.458 433.5,193.5C 435.181,191.992 437.181,190.992 439.5,190.5C 441.027,190.573 442.027,189.906 442.5,188.5C 444.795,187.864 446.461,186.531 447.5,184.5C 447.842,183.662 448.508,183.328 449.5,183.5C 451.404,183.262 452.738,182.262 453.5,180.5C 455.027,180.573 456.027,179.906 456.5,178.5C 456.833,177.5 457.5,176.833 458.5,176.5C 459.496,176.586 460.329,176.252 461,175.5C 461.464,176.094 461.631,176.761 461.5,177.5 Z"/></g>
<g><path style="opacity:0.071" fill="#bebebd" d="M 274.5,175.5 C 275.924,177.515 276.59,179.848 276.5,182.5C 275.076,180.485 274.41,178.152 274.5,175.5 Z"/></g>
<g><path style="opacity:0.067" fill="#b1b1b1" d="M 442.5,177.5 C 444.985,178.74 444.985,179.74 442.5,180.5C 442.5,179.5 442.5,178.5 442.5,177.5 Z"/></g>
<g><path style="opacity:0.671" fill="#909190" d="M 456.5,178.5 C 456.027,179.906 455.027,180.573 453.5,180.5C 453.973,179.094 454.973,178.427 456.5,178.5 Z"/></g>
<g><path style="opacity:0.388" fill="#9d9c9c" d="M 310.5,178.5 C 311.906,178.973 312.573,179.973 312.5,181.5C 311.094,181.027 310.427,180.027 310.5,178.5 Z"/></g>
<g><path style="opacity:0.475" fill="#979696" d="M 91.5,178.5 C 90.9202,180.749 89.5869,182.415 87.5,183.5C 88.0798,181.251 89.4131,179.585 91.5,178.5 Z"/></g>
<g><path style="opacity:0.733" fill="#7b7b7b" d="M 453.5,180.5 C 452.738,182.262 451.404,183.262 449.5,183.5C 450.262,181.738 451.596,180.738 453.5,180.5 Z"/></g>
<g><path style="opacity:0.663" fill="#7d7c7c" d="M 447.5,184.5 C 446.461,186.531 444.795,187.864 442.5,188.5C 443.579,186.457 445.246,185.124 447.5,184.5 Z"/></g>
<g><path style="opacity:0.388" fill="#aeadad" d="M 85.5,185.5 C 85.573,187.027 84.9063,188.027 83.5,188.5C 83.427,186.973 84.0937,185.973 85.5,185.5 Z"/></g>
<g><path style="opacity:0.576" fill="#797777" d="M 314.5,185.5 C 315.906,185.973 316.573,186.973 316.5,188.5C 315.094,188.027 314.427,187.027 314.5,185.5 Z"/></g>
<g><path style="opacity:0.812" fill="#959595" d="M 346.5,188.5 C 348.446,189.035 349.446,190.368 349.5,192.5C 348.026,191.564 347.026,190.23 346.5,188.5 Z"/></g>
<g><path style="opacity:0.722" fill="#888788" d="M 83.5,188.5 C 83.573,190.027 82.9063,191.027 81.5,191.5C 81.427,189.973 82.0937,188.973 83.5,188.5 Z"/></g>
<g><path style="opacity:0.745" fill="#7b7a7a" d="M 442.5,188.5 C 442.027,189.906 441.027,190.573 439.5,190.5C 439.973,189.094 440.973,188.427 442.5,188.5 Z"/></g>
<g><path style="opacity:0.329" fill="#a3a1a2" d="M 316.5,188.5 C 317.906,188.973 318.573,189.973 318.5,191.5C 317.094,191.027 316.427,190.027 316.5,188.5 Z"/></g>
<g><path style="opacity:0.333" fill="#a1a1a2" d="M 276.5,185.5 C 277.768,187.905 278.435,190.572 278.5,193.5C 276.96,191.162 276.294,188.495 276.5,185.5 Z"/></g>
<g><path style="opacity:0.663" fill="#949494" d="M 79.5,193.5 C 78.5806,196.089 76.914,198.089 74.5,199.5C 75.4194,196.911 77.086,194.911 79.5,193.5 Z"/></g>
<g><path style="opacity:0.38" fill="#a4a3a3" d="M 257.5,194.5 C 260.428,194.565 263.095,195.232 265.5,196.5C 262.505,196.706 259.838,196.04 257.5,194.5 Z"/></g>
<g><path style="opacity:0.325" fill="#aaa9aa" d="M 319.5,193.5 C 320.906,193.973 321.573,194.973 321.5,196.5C 320.094,196.027 319.427,195.027 319.5,193.5 Z"/></g>
<g><path style="opacity:0.894" fill="#858585" d="M 278.5,195.5 C 279.404,196.209 279.737,197.209 279.5,198.5C 275.581,198.318 271.581,197.651 267.5,196.5C 271.106,196.211 274.606,196.544 278,197.5C 278.464,196.906 278.631,196.239 278.5,195.5 Z"/></g>
<g><path style="opacity:0.982" fill="#767676" d="M 433.5,193.5 C 433.047,194.458 432.381,195.292 431.5,196C 432.5,196.333 433.5,196.667 434.5,197C 431.715,199.436 429.048,201.936 426.5,204.5C 426.414,203.504 426.748,202.671 427.5,202C 426.906,201.536 426.239,201.369 425.5,201.5C 427.129,199.804 426.796,198.804 424.5,198.5C 427.331,196.583 430.331,194.917 433.5,193.5 Z"/></g>
<g><path style="opacity:0.91" fill="#7c7c7c" d="M 354.5,199.5 C 356.446,200.035 357.446,201.368 357.5,203.5C 356.026,202.564 355.026,201.23 354.5,199.5 Z"/></g>
<g><path style="opacity:0.729" fill="#969594" d="M 74.5,199.5 C 74.2624,201.404 73.2624,202.738 71.5,203.5C 71.7376,201.596 72.7376,200.262 74.5,199.5 Z"/></g>
<g><path style="opacity:0.588" fill="#7e7e7d" d="M 323.5,200.5 C 324.906,200.973 325.573,201.973 325.5,203.5C 324.094,203.027 323.427,202.027 323.5,200.5 Z"/></g>
<g><path style="opacity:0.773" fill="#888788" d="M 416.5,202.5 C 416.027,203.906 415.027,204.573 413.5,204.5C 413.973,203.094 414.973,202.427 416.5,202.5 Z"/></g>
<g><path style="opacity:0.863" fill="#797979" d="M 71.5,204.5 C 71.1667,206.833 69.8333,208.167 67.5,208.5C 68.5,206.833 69.8333,205.5 71.5,204.5 Z"/></g>
<g><path style="opacity:0.333" fill="#a5a4a4" d="M 325.5,203.5 C 326.906,203.973 327.573,204.973 327.5,206.5C 326.094,206.027 325.427,205.027 325.5,203.5 Z"/></g>
<g><path style="opacity:0.004" fill="#cacaca" d="M 359.5,206.5 C 360.906,206.973 361.573,207.973 361.5,209.5C 360.094,209.027 359.427,208.027 359.5,206.5 Z"/></g>
<g><path style="opacity:0.831" fill="#757475" d="M 408.5,206.5 C 408.027,207.906 407.027,208.573 405.5,208.5C 405.973,207.094 406.973,206.427 408.5,206.5 Z"/></g>
<g><path style="opacity:0.769" fill="#888788" d="M 405.5,208.5 C 404.486,209.674 403.153,210.34 401.5,210.5C 402.287,208.896 403.62,208.229 405.5,208.5 Z"/></g>
<g><path style="opacity:0.294" fill="#aeaead" d="M 328.5,208.5 C 329.906,208.973 330.573,209.973 330.5,211.5C 329.094,211.027 328.427,210.027 328.5,208.5 Z"/></g>
<g><path style="opacity:0.341" fill="#a9a9a9" d="M 330.5,211.5 C 331.906,211.973 332.573,212.973 332.5,214.5C 331.094,214.027 330.427,213.027 330.5,211.5 Z"/></g>
<g><path style="opacity:0.686" fill="#828281" d="M 420.5,211.5 C 417.899,215.771 414.566,219.437 410.5,222.5C 413.101,218.229 416.434,214.563 420.5,211.5 Z"/></g>
<g><path style="opacity:0.616" fill="#868585" d="M 63.5,214.5 C 63.1667,216.833 61.8333,218.167 59.5,218.5C 60.5,216.833 61.8333,215.5 63.5,214.5 Z"/></g>
<g><path style="opacity:0.792" fill="#919090" d="M 203.5,218.5 C 201.5,218.5 199.5,218.5 197.5,218.5C 198.878,217.766 200.378,217.099 202,216.5C 202.717,217.044 203.217,217.711 203.5,218.5 Z"/></g>
<g><path style="opacity:0.776" fill="#828181" d="M 333.5,216.5 C 334.906,216.973 335.573,217.973 335.5,219.5C 334.094,219.027 333.427,218.027 333.5,216.5 Z"/></g>
<g><path style="opacity:0.675" fill="#7d7c7c" d="M 389.5,216.5 C 387.967,218.245 385.967,219.245 383.5,219.5C 385.033,217.755 387.033,216.755 389.5,216.5 Z"/></g>
<g><path style="opacity:0.89" fill="#7e7d7e" d="M 197.5,218.5 C 196.365,220.213 194.698,220.88 192.5,220.5C 193.93,219.463 195.597,218.796 197.5,218.5 Z"/></g>
<g><path style="opacity:0.396" fill="#aaabaa" d="M 58.5,220.5 C 58.1667,221.5 57.5,222.167 56.5,222.5C 56.5,221.167 57.1667,220.5 58.5,220.5 Z"/></g>
<g><path style="opacity:0.886" fill="#777677" d="M 187.5,222.5 C 186.365,224.213 184.698,224.88 182.5,224.5C 183.93,223.463 185.597,222.796 187.5,222.5 Z"/></g>
<g><path style="opacity:0.51" fill="#8e8d8c" d="M 336.5,221.5 C 337.906,221.973 338.573,222.973 338.5,224.5C 337.094,224.027 336.427,223.027 336.5,221.5 Z"/></g>
<g><path style="opacity:0.416" fill="#9c9d9c" d="M 56.5,222.5 C 56.573,224.027 55.9063,225.027 54.5,225.5C 54.427,223.973 55.0937,222.973 56.5,222.5 Z"/></g>
<g><path style="opacity:0.859" fill="#7e7e7f" d="M 54.5,225.5 C 54.2624,227.404 53.2624,228.738 51.5,229.5C 51.7376,227.596 52.7376,226.262 54.5,225.5 Z"/></g>
<g><path style="opacity:0.718" fill="#8f8f90" d="M 371.5,225.5 C 371.027,226.906 370.027,227.573 368.5,227.5C 368.973,226.094 369.973,225.427 371.5,225.5 Z"/></g>
<g><path style="opacity:0.18" fill="#c8c7c7" d="M 440.5,224.5 C 440.34,226.153 439.674,227.486 438.5,228.5C 438.229,226.62 438.896,225.287 440.5,224.5 Z"/></g>
<g><path style="opacity:0.855" fill="#757475" d="M 339.5,226.5 C 341.262,227.262 342.262,228.596 342.5,230.5C 340.738,229.738 339.738,228.404 339.5,226.5 Z"/></g>
<g><path style="opacity:0.867" fill="#7e7e7e" d="M 174.5,227.5 C 173.365,229.213 171.698,229.88 169.5,229.5C 170.93,228.463 172.597,227.796 174.5,227.5 Z"/></g>
<g><path style="opacity:0.027" fill="#c2c2c2" d="M 115.5,228.5 C 115.027,229.906 114.027,230.573 112.5,230.5C 112.973,229.094 113.973,228.427 115.5,228.5 Z"/></g>
<g><path style="opacity:0.847" fill="#7b7b7b" d="M 51.5,229.5 C 51.2624,231.404 50.2624,232.738 48.5,233.5C 48.7376,231.596 49.7376,230.262 51.5,229.5 Z"/></g>
<g><path style="opacity:0.439" fill="#bab9ba" d="M 401.5,232.5 C 401.573,234.027 400.906,235.027 399.5,235.5C 399.427,233.973 400.094,232.973 401.5,232.5 Z"/></g>
<g><path style="opacity:0.776" fill="#858585" d="M 48.5,233.5 C 48.2624,235.404 47.2624,236.738 45.5,237.5C 45.7376,235.596 46.7376,234.262 48.5,233.5 Z"/></g>
<g><path style="opacity:0.906" fill="#7c7b7b" d="M 345.5,236.5 C 347.099,237.562 348.766,237.562 350.5,236.5C 348.704,239.048 347.038,239.048 345.5,236.5 Z"/></g>
<g><path style="opacity:0.835" fill="#6e6e6e" d="M 152.5,236.5 C 149.992,238.554 146.992,239.554 143.5,239.5C 146.254,238.054 149.254,237.054 152.5,236.5 Z"/></g>
<g><path style="opacity:0.341" fill="#b5b3b4" d="M 44.5,238.5 C 44.1667,239.5 43.5,240.167 42.5,240.5C 42.5,239.167 43.1667,238.5 44.5,238.5 Z"/></g>
<g><path style="opacity:0.722" fill="#909091" d="M 138.5,241.5 C 137.486,242.674 136.153,243.34 134.5,243.5C 135.287,241.896 136.62,241.229 138.5,241.5 Z"/></g>
<g><path style="opacity:0.537" fill="#9b9b9b" d="M 394.5,240.5 C 393.581,243.089 391.914,245.089 389.5,246.5C 390.419,243.911 392.086,241.911 394.5,240.5 Z"/></g>
<g><path style="opacity:0.035" fill="#c8c8c8" d="M 88.5,244.5 C 88.0269,245.906 87.0269,246.573 85.5,246.5C 85.9731,245.094 86.9731,244.427 88.5,244.5 Z"/></g>
<g><path style="opacity:0.89" fill="#767576" d="M 131.5,244.5 C 130.365,246.213 128.698,246.88 126.5,246.5C 127.93,245.463 129.597,244.796 131.5,244.5 Z"/></g>
<g><path style="opacity:0.8" fill="#8f8f8f" d="M 123.5,247.5 C 121.898,249.074 119.898,249.741 117.5,249.5C 119.214,248.262 121.214,247.595 123.5,247.5 Z"/></g>
<g><path style="opacity:0.416" fill="#9a9a9a" d="M 39.5,244.5 C 38.5806,247.089 36.914,249.089 34.5,250.5C 35.4194,247.911 37.086,245.911 39.5,244.5 Z"/></g>
<g><path style="opacity:0.788" fill="#514f4e" d="M 173.5,251.5 C 173.167,251.5 172.833,251.5 172.5,251.5C 171.307,249.03 170.807,246.364 171,243.5C 172.144,246.08 172.978,248.747 173.5,251.5 Z"/></g>
<g><path style="opacity:0.902" fill="#706f6f" d="M 387.5,248.5 C 387.262,250.404 386.262,251.738 384.5,252.5C 384.738,250.596 385.738,249.262 387.5,248.5 Z"/></g>
<g><path style="opacity:0.761" fill="#8e8d8d" d="M 34.5,250.5 C 34.2624,252.404 33.2624,253.738 31.5,254.5C 31.7376,252.596 32.7376,251.262 34.5,250.5 Z"/></g>
<g><path style="opacity:0.251" fill="#bebebe" d="M 172.5,251.5 C 172.833,251.5 173.167,251.5 173.5,251.5C 174.319,253.772 174.985,256.106 175.5,258.5C 174.833,258.5 174.5,258.833 174.5,259.5C 173.469,257.039 172.802,254.373 172.5,251.5 Z"/></g>
<g><path style="opacity:0.376" fill="#afafaf" d="M 384.5,252.5 C 382.57,256.1 379.903,259.1 376.5,261.5C 378.43,257.9 381.097,254.9 384.5,252.5 Z"/></g>
<g><path style="opacity:0.961" fill="#555455" d="M 101.5,256.5 C 99.3826,258.655 96.716,259.655 93.5,259.5C 95.8478,257.903 98.5145,256.903 101.5,256.5 Z"/></g>
<g><path style="opacity:0.627" fill="#a3a3a3" d="M 26.5,260.5 C 26.2624,262.404 25.2624,263.738 23.5,264.5C 23.7376,262.596 24.7376,261.262 26.5,260.5 Z"/></g>
<g><path style="opacity:0.008" fill="#d2d2d2" d="M 326.5,261.5 C 325.486,262.674 324.153,263.34 322.5,263.5C 323.287,261.896 324.62,261.229 326.5,261.5 Z"/></g>
<g><path style="opacity:0.773" fill="#848484" d="M 374.5,263.5 C 374.262,265.404 373.262,266.738 371.5,267.5C 371.738,265.596 372.738,264.262 374.5,263.5 Z"/></g>
<g><path style="opacity:0.655" fill="#7e7f7f" d="M 23.5,264.5 C 23.2624,266.404 22.2624,267.738 20.5,268.5C 20.7376,266.596 21.7376,265.262 23.5,264.5 Z"/></g>
<g><path style="opacity:0.725" fill="#8e8e8e" d="M 74.5,266.5 C 74.0269,267.906 73.0269,268.573 71.5,268.5C 71.9731,267.094 72.9731,266.427 74.5,266.5 Z"/></g>
<g><path style="opacity:0.863" fill="#6a6a6a" d="M 71.5,268.5 C 69.3826,270.655 66.716,271.655 63.5,271.5C 65.936,270.129 68.6027,269.129 71.5,268.5 Z"/></g>
<g><path style="opacity:0.255" fill="#a7a6a7" d="M 307.5,269.5 C 308.391,270.11 309.391,270.443 310.5,270.5C 309.053,271.885 308.053,271.552 307.5,269.5 Z"/></g>
<g><path style="opacity:0.635" fill="#99999a" d="M 18.5,270.5 C 18.573,272.027 17.9063,273.027 16.5,273.5C 16.427,271.973 17.0937,270.973 18.5,270.5 Z"/></g>
<g><path style="opacity:0.859" fill="#6a6a6b" d="M 63.5,271.5 C 61.3826,273.655 58.716,274.655 55.5,274.5C 57.936,273.129 60.6027,272.129 63.5,271.5 Z"/></g>
<g><path style="opacity:0.557" fill="#909090" d="M 367.5,271.5 C 367.262,273.404 366.262,274.738 364.5,275.5C 364.738,273.596 365.738,272.262 367.5,271.5 Z"/></g>
<g><path style="opacity:0.263" fill="#b7b7b6" d="M 210.5,272.5 C 211.21,274.893 211.877,277.393 212.5,280C 212.272,280.399 211.938,280.565 211.5,280.5C 210.527,278.052 210.194,275.385 210.5,272.5 Z"/></g>
<g><path style="opacity:0.42" fill="#afaeae" d="M 363.5,277.5 C 362.833,278.833 361.833,279.833 360.5,280.5C 360.5,278.5 361.5,277.5 363.5,277.5 Z"/></g>
<g><path style="opacity:0.937" fill="#727171" d="M 45.5,278.5 C 44.3646,280.213 42.698,280.88 40.5,280.5C 41.9303,279.463 43.597,278.796 45.5,278.5 Z"/></g>
<g><path style="opacity:0.424" fill="#a7a6a5" d="M 10.5,280.5 C 10.573,282.027 9.90632,283.027 8.5,283.5C 8.42702,281.973 9.09368,280.973 10.5,280.5 Z"/></g>
<g><path style="opacity:0.427" fill="#a5a5a5" d="M 360.5,280.5 C 359.833,281.833 358.833,282.833 357.5,283.5C 357.5,281.5 358.5,280.5 360.5,280.5 Z"/></g>
<g><path style="opacity:0.671" fill="#949393" d="M 8.5,283.5 C 7.92022,285.749 6.58689,287.415 4.5,288.5C 5.07978,286.251 6.41311,284.585 8.5,283.5 Z"/></g>
<g><path style="opacity:0.957" fill="#747474" d="M 29.5,284.5 C 27.3826,286.655 24.716,287.655 21.5,287.5C 23.936,286.129 26.6027,285.129 29.5,284.5 Z"/></g>
<g><path style="opacity:0.765" fill="#8f8f8f" d="M 355.5,285.5 C 355.262,287.404 354.262,288.738 352.5,289.5C 352.738,287.596 353.738,286.262 355.5,285.5 Z"/></g>
<g><path style="opacity:0.816" fill="#858483" d="M 21.5,287.5 C 20.3646,289.213 18.698,289.88 16.5,289.5C 17.9303,288.463 19.597,287.796 21.5,287.5 Z"/></g>
<g><path style="opacity:0.773" fill="#6f6e6e" d="M 4.5,288.5 C 5.55213,290.256 7.21879,290.923 9.5,290.5C 7.73535,291.461 5.73535,291.795 3.5,291.5C 3.26269,290.209 3.59603,289.209 4.5,288.5 Z"/></g>
<g><path style="opacity:0.167" fill="#d6d6d6" d="M 16.5,289.5 C 20.2984,290.483 24.2984,290.817 28.5,290.5C 23.6842,291.65 18.6842,291.816 13.5,291C 14.2438,289.961 15.2438,289.461 16.5,289.5 Z"/></g>
<g><path style="opacity:0.749" fill="#8e8e8e" d="M 348.5,293.5 C 348.262,295.404 347.262,296.738 345.5,297.5C 345.738,295.596 346.738,294.262 348.5,293.5 Z"/></g>
<g><path style="opacity:0.882" fill="#898989" d="M 104.5,299.5 C 106.446,300.035 107.446,301.368 107.5,303.5C 106.026,302.564 105.026,301.23 104.5,299.5 Z"/></g>
<g><path style="opacity:0.408" fill="#b2b2b2" d="M 343.5,299.5 C 342.243,302.427 340.243,304.761 337.5,306.5C 338.757,303.573 340.757,301.239 343.5,299.5 Z"/></g>
<g><path style="opacity:0.2" fill="#bebdbe" d="M 404.5,302.5 C 404.573,304.027 403.906,305.027 402.5,305.5C 402.427,303.973 403.094,302.973 404.5,302.5 Z"/></g>
<g><path style="opacity:0.906" fill="#747473" d="M 108.5,305.5 C 110.048,305.821 110.715,306.821 110.5,308.5C 109.599,307.71 108.932,306.71 108.5,305.5 Z"/></g>
<g><path style="opacity:0.163" fill="#c8c8c7" d="M 267.5,307.5 C 264.098,307.342 260.764,307.676 257.5,308.5C 257.611,307.883 257.944,307.383 258.5,307C 261.696,306.195 264.696,306.362 267.5,307.5 Z"/></g>
<g><path style="opacity:0.839" fill="#878687" d="M 337.5,306.5 C 336.92,308.749 335.587,310.415 333.5,311.5C 334.08,309.251 335.413,307.585 337.5,306.5 Z"/></g>
<g><path style="opacity:0.675" fill="#727271" d="M 180.5,300.5 C 181.913,303.219 182.58,306.219 182.5,309.5C 181.087,306.781 180.42,303.781 180.5,300.5 Z"/></g>
<g><path style="opacity:0.604" fill="#9f9e9f" d="M 257.5,308.5 C 257.027,309.906 256.027,310.573 254.5,310.5C 254.973,309.094 255.973,308.427 257.5,308.5 Z"/></g>
<g><path style="opacity:0.725" fill="#8a8a8a" d="M 254.5,310.5 C 254.027,311.906 253.027,312.573 251.5,312.5C 251.973,311.094 252.973,310.427 254.5,310.5 Z"/></g>
<g><path style="opacity:0.812" fill="#787878" d="M 251.5,312.5 C 251.027,313.906 250.027,314.573 248.5,314.5C 248.973,313.094 249.973,312.427 251.5,312.5 Z"/></g>
<g><path style="opacity:0.875" fill="#767675" d="M 114.5,317.5 C 116.048,317.821 116.715,318.821 116.5,320.5C 115.599,319.71 114.932,318.71 114.5,317.5 Z"/></g>
<g><path style="opacity:0.686" fill="#939292" d="M 244.5,316.5 C 244.027,317.906 243.027,318.573 241.5,318.5C 241.973,317.094 242.973,316.427 244.5,316.5 Z"/></g>
<g><path style="opacity:0.2" fill="#c8c8c7" d="M 398.5,315.5 C 398.34,317.153 397.674,318.486 396.5,319.5C 396.229,317.62 396.896,316.287 398.5,315.5 Z"/></g>
<g><path style="opacity:0.698" fill="#989898" d="M 241.5,318.5 C 240.599,320.727 238.933,321.727 236.5,321.5C 237.899,320.11 239.566,319.11 241.5,318.5 Z"/></g>
<g><path style="opacity:0.624" fill="#9c9c9c" d="M 234.5,322.5 C 234.027,323.906 233.027,324.573 231.5,324.5C 231.973,323.094 232.973,322.427 234.5,322.5 Z"/></g>
<g><path style="opacity:0.616" fill="#9a9a9a" d="M 229.5,325.5 C 229.027,326.906 228.027,327.573 226.5,327.5C 226.973,326.094 227.973,325.427 229.5,325.5 Z"/></g>
<g><path style="opacity:0.847" fill="#888989" d="M 120.5,327.5 C 122.048,327.821 122.715,328.821 122.5,330.5C 121.599,329.71 120.932,328.71 120.5,327.5 Z"/></g>
<g><path style="opacity:0.22" fill="#c6c6c6" d="M 217.5,324.5 C 217.94,326.844 218.94,328.844 220.5,330.5C 219.791,331.404 218.791,331.737 217.5,331.5C 217.5,329.167 217.5,326.833 217.5,324.5 Z"/></g>
<g><path style="opacity:0.322" fill="#9a9a9a" d="M 184.5,322.5 C 185.657,325.273 186.324,328.273 186.5,331.5C 184.882,328.829 184.215,325.829 184.5,322.5 Z"/></g>
<g><path style="opacity:0.969" fill="#727271" d="M 128.5,341.5 C 130.048,341.821 130.715,342.821 130.5,344.5C 129.599,343.71 128.932,342.71 128.5,341.5 Z"/></g>
<g><path style="opacity:0.267" fill="#b3b3b2" d="M 409.5,342.5 C 411.38,342.229 412.713,342.896 413.5,344.5C 411.847,344.34 410.514,343.674 409.5,342.5 Z"/></g>
<g><path style="opacity:0.894" fill="#818181" d="M 418.5,347.5 C 420.23,348.026 421.564,349.026 422.5,350.5C 420.368,350.446 419.035,349.446 418.5,347.5 Z"/></g>
<g><path style="opacity:0.055" fill="#b5b6b6" d="M 132.5,348.5 C 134.048,348.821 134.715,349.821 134.5,351.5C 133.599,350.71 132.932,349.71 132.5,348.5 Z"/></g>
<g><path style="opacity:0.949" fill="#6b6b6b" d="M 135.5,354.5 C 137.048,354.821 137.715,355.821 137.5,357.5C 136.599,356.71 135.932,355.71 135.5,354.5 Z"/></g>
<g><path style="opacity:0.004" fill="#d1d0d0" d="M 428.5,354.5 C 430.027,354.427 431.027,355.094 431.5,356.5C 429.973,356.573 428.973,355.906 428.5,354.5 Z"/></g>
<g><path style="opacity:0.937" fill="#717171" d="M 434.5,358.5 C 435.71,358.932 436.71,359.599 437.5,360.5C 435.821,360.715 434.821,360.048 434.5,358.5 Z"/></g>
<g><path style="opacity:0.953" fill="#6f6e6e" d="M 447.5,366.5 C 448.71,366.932 449.71,367.599 450.5,368.5C 448.821,368.715 447.821,368.048 447.5,366.5 Z"/></g>
<g><path style="opacity:0.969" fill="#6e6f6e" d="M 450.5,368.5 C 451.71,368.932 452.71,369.599 453.5,370.5C 451.821,370.715 450.821,370.048 450.5,368.5 Z"/></g>
<g><path style="opacity:0.082" fill="#cececc" d="M 455.5,371.5 C 456.757,372.623 456.424,373.289 454.5,373.5C 454.833,372.833 455.167,372.167 455.5,371.5 Z"/></g>
<g><path style="opacity:0.871" fill="#706f6f" d="M 191.5,367.5 C 192.307,371.021 192.974,374.688 193.5,378.5C 192.883,378.389 192.383,378.056 192,377.5C 191.502,374.183 191.335,370.85 191.5,367.5 Z"/></g>
<g><path style="opacity:0.922" fill="#7a7a79" d="M 149.5,378.5 C 151.048,378.821 151.715,379.821 151.5,381.5C 150.599,380.71 149.932,379.71 149.5,378.5 Z"/></g>
<g><path style="opacity:0.753" fill="#878786" d="M 194.5,380.5 C 195.906,380.973 196.573,381.973 196.5,383.5C 195.094,383.027 194.427,382.027 194.5,380.5 Z"/></g>
<g><path style="opacity:0.765" fill="#848282" d="M 197.5,385.5 C 198.906,385.973 199.573,386.973 199.5,388.5C 198.094,388.027 197.427,387.027 197.5,385.5 Z"/></g>
<g><path style="opacity:0.922" fill="#727271" d="M 199.5,388.5 C 201.262,389.262 202.262,390.596 202.5,392.5C 200.738,391.738 199.738,390.404 199.5,388.5 Z"/></g>
<g><path style="opacity:0.404" fill="#a0a0a0" d="M 202.5,392.5 C 203.906,392.973 204.573,393.973 204.5,395.5C 203.094,395.027 202.427,394.027 202.5,392.5 Z"/></g>
<g><path style="opacity:0.369" fill="#a6a6a5" d="M 204.5,395.5 C 205.906,395.973 206.573,396.973 206.5,398.5C 205.094,398.027 204.427,397.027 204.5,395.5 Z"/></g>
<g><path style="opacity:0.78" fill="#8e8e8e" d="M 207.5,400.5 C 209.262,401.262 210.262,402.596 210.5,404.5C 208.738,403.738 207.738,402.404 207.5,400.5 Z"/></g>
<g><path style="opacity:0.663" fill="#858585" d="M 210.5,404.5 C 212.262,405.262 213.262,406.596 213.5,408.5C 211.738,407.738 210.738,406.404 210.5,404.5 Z"/></g>
<g><path style="opacity:0.004" fill="#c5c3c4" d="M 303.5,407.5 C 301.898,409.074 299.898,409.741 297.5,409.5C 299.214,408.262 301.214,407.595 303.5,407.5 Z"/></g>
<g><path style="opacity:0.976" fill="#6c6c6c" d="M 167.5,410.5 C 169.048,410.821 169.715,411.821 169.5,413.5C 168.599,412.71 167.932,411.71 167.5,410.5 Z"/></g>
<g><path style="opacity:0.384" fill="#979797" d="M 214.5,410.5 C 215.906,410.973 216.573,411.973 216.5,413.5C 215.094,413.027 214.427,412.027 214.5,410.5 Z"/></g>
<g><path style="opacity:0.353" fill="#ababab" d="M 216.5,413.5 C 217.906,413.973 218.573,414.973 218.5,416.5C 217.094,416.027 216.427,415.027 216.5,413.5 Z"/></g>
<g><path style="opacity:0.333" fill="#a3a3a4" d="M 218.5,417.5 C 219.906,417.973 220.573,418.973 220.5,420.5C 219.094,420.027 218.427,419.027 218.5,417.5 Z"/></g>
<g><path style="opacity:0.647" fill="#828182" d="M 172.5,419.5 C 174.446,420.035 175.446,421.368 175.5,423.5C 174.026,422.564 173.026,421.23 172.5,419.5 Z"/></g>
<g><path style="opacity:0.584" fill="#a7a7a8" d="M 198.5,422.5 C 200.5,422.5 201.5,423.5 201.5,425.5C 200.167,424.833 199.167,423.833 198.5,422.5 Z"/></g>
<g><path style="opacity:0.4" fill="#a4a4a4" d="M 220.5,420.5 C 221.906,420.973 222.573,421.973 222.5,423.5C 221.094,423.027 220.427,422.027 220.5,420.5 Z"/></g>
<g><path style="opacity:0.196" fill="#d2d1d1" d="M 198.5,422.5 C 197.566,423.568 197.232,424.901 197.5,426.5C 196.378,424.712 196.211,422.712 197,420.5C 197.717,421.044 198.217,421.711 198.5,422.5 Z"/></g>
<g><path style="opacity:0.769" fill="#838382" d="M 201.5,425.5 C 203.027,425.427 204.027,426.094 204.5,427.5C 202.973,427.573 201.973,426.906 201.5,425.5 Z"/></g>
<g><path style="opacity:0.725" fill="#909090" d="M 240.5,422.5 C 239.438,424.099 239.438,425.766 240.5,427.5C 237.952,425.704 237.952,424.038 240.5,422.5 Z"/></g>
<g><path style="opacity:0.976" fill="#6b6a6b" d="M 204.5,427.5 C 206.446,428.035 207.446,429.368 207.5,431.5C 206.026,430.564 205.026,429.23 204.5,427.5 Z"/></g>
<g><path style="opacity:0.337" fill="#a8a8a8" d="M 225.5,427.5 C 226.906,427.973 227.573,428.973 227.5,430.5C 226.094,430.027 225.427,429.027 225.5,427.5 Z"/></g>
<g><path style="opacity:0.408" fill="#959595" d="M 227.5,431.5 C 228.906,431.973 229.573,432.973 229.5,434.5C 228.094,434.027 227.427,433.027 227.5,431.5 Z"/></g>
<g><path style="opacity:0.937" fill="#7b7a7b" d="M 181.5,435.5 C 183.048,435.821 183.715,436.821 183.5,438.5C 182.599,437.71 181.932,436.71 181.5,435.5 Z"/></g>
<g><path style="opacity:0.369" fill="#a4a4a3" d="M 229.5,434.5 C 230.906,434.973 231.573,435.973 231.5,437.5C 230.094,437.027 229.427,436.027 229.5,434.5 Z"/></g>
<g><path style="opacity:0.973" fill="#7d7d7c" d="M 213.5,437.5 C 215.531,438.539 216.864,440.205 217.5,442.5C 215.457,441.421 214.124,439.754 213.5,437.5 Z"/></g>
<g><path style="opacity:0.133" fill="#d6d5d6" d="M 239.5,437.5 C 240.338,437.842 240.672,438.508 240.5,439.5C 238.302,439.591 237.969,438.925 239.5,437.5 Z"/></g>
<g><path style="opacity:0.267" fill="#b2b3b2" d="M 232.5,439.5 C 233.906,439.973 234.573,440.973 234.5,442.5C 233.094,442.027 232.427,441.027 232.5,439.5 Z"/></g>
<g><path style="opacity:0.38" fill="#bebebe" d="M 219.5,445.5 C 221.749,446.08 223.415,447.413 224.5,449.5C 222.251,448.92 220.585,447.587 219.5,445.5 Z"/></g>
<g><path style="opacity:0.933" fill="#878786" d="M 188.5,447.5 C 190.741,448.3 191.741,449.966 191.5,452.5C 190.263,451.035 189.263,449.368 188.5,447.5 Z"/></g>
<g><path style="opacity:0.51" fill="#828282" d="M 236.5,446.5 C 237.906,446.973 238.573,447.973 238.5,449.5C 237.094,449.027 236.427,448.027 236.5,446.5 Z"/></g>
<g><path style="opacity:0.986" fill="#515050" d="M 244.5,440.5 C 247.633,447.131 249.967,454.131 251.5,461.5C 251.737,462.791 251.404,463.791 250.5,464.5C 247.6,459.152 245.267,453.485 243.5,447.5C 244.376,447.631 245.043,447.298 245.5,446.5C 244.652,444.591 244.318,442.591 244.5,440.5 Z"/></g>
<g><path style="opacity:0.937" fill="#777777" d="M 191.5,452.5 C 193.048,452.821 193.715,453.821 193.5,455.5C 192.599,454.71 191.932,453.71 191.5,452.5 Z"/></g>
<g><path style="opacity:0.384" fill="#a6a5a5" d="M 239.5,451.5 C 240.906,451.973 241.573,452.973 241.5,454.5C 240.094,454.027 239.427,453.027 239.5,451.5 Z"/></g>
<g><path style="opacity:0.004" fill="#cececf" d="M 235.5,461.5 C 236.906,461.973 237.573,462.973 237.5,464.5C 236.094,464.027 235.427,463.027 235.5,461.5 Z"/></g>
<g><path style="opacity:0.275" fill="#b4b4b4" d="M 244.5,460.5 C 245.906,460.973 246.573,461.973 246.5,463.5C 245.094,463.027 244.427,462.027 244.5,460.5 Z"/></g>
<g><path style="opacity:0.749" fill="#7b7c7b" d="M 251.5,461.5 C 252.458,463.302 253.125,465.302 253.5,467.5C 253.672,468.492 253.338,469.158 252.5,469.5C 251.069,468.22 250.402,466.553 250.5,464.5C 251.404,463.791 251.737,462.791 251.5,461.5 Z"/></g>
<g><path style="opacity:0.267" fill="#cdcdcd" d="M 200.5,462.5 C 201.788,464.035 201.788,465.701 200.5,467.5C 199.893,467.376 199.56,467.043 199.5,466.5C 200.434,465.432 200.768,464.099 200.5,462.5 Z"/></g>
<g><path style="opacity:0.329" fill="#a3a3a3" d="M 248.5,467.5 C 249.906,467.973 250.573,468.973 250.5,470.5C 249.094,470.027 248.427,469.027 248.5,467.5 Z"/></g>
<g><path style="opacity:0.008" fill="#cacacb" d="M 245.5,472.5 C 246.5,472.833 247.167,473.5 247.5,474.5C 246.167,474.5 245.5,473.833 245.5,472.5 Z"/></g>
<g><path style="opacity:0.608" fill="#a9a9a8" d="M 247.5,475.5 C 248.833,475.5 249.5,476.167 249.5,477.5C 248.5,477.167 247.833,476.5 247.5,475.5 Z"/></g>
<g><path style="opacity:0.051" fill="#b7b6b6" d="M 253.5,467.5 C 256.11,472.607 257.443,477.94 257.5,483.5C 256.326,482.486 255.66,481.153 255.5,479.5C 255.167,479.5 254.833,479.5 254.5,479.5C 254.5,478.833 254.5,478.167 254.5,477.5C 253.094,477.027 252.427,476.027 252.5,474.5C 253.363,475.463 254.03,475.463 254.5,474.5C 253.544,472.925 252.877,471.258 252.5,469.5C 253.338,469.158 253.672,468.492 253.5,467.5 Z"/></g>
<g><path style="opacity:0.992" fill="#4c4b4b" d="M 251.5,479.5 C 252.798,480.116 253.798,480.116 254.5,479.5C 254.833,479.5 255.167,479.5 255.5,479.5C 255.66,481.153 256.326,482.486 257.5,483.5C 257.5,484.167 257.167,484.5 256.5,484.5C 254.5,483.167 252.833,481.5 251.5,479.5 Z"/></g>
<g><path style="opacity:0.412" fill="#bbbbbb" d="M 257.5,483.5 C 259.404,485.044 260.238,487.044 260,489.5C 258.198,488.211 257.031,486.544 256.5,484.5C 257.167,484.5 257.5,484.167 257.5,483.5 Z"/></g>
</svg>